<?xml version="1.0" standalone="no"?>
<!DOCTYPE svg PUBLIC "-//W3C//DTD SVG 20010904//EN"
 "http://www.w3.org/TR/2001/REC-SVG-20010904/DTD/svg10.dtd">
<svg version="1.0" xmlns="http://www.w3.org/2000/svg"
 width="500.000000pt" height="500.000000pt" viewBox="0 0 500.000000 500.000000"
 preserveAspectRatio="xMidYMid meet">

<g transform="translate(0.000000,500.000000) scale(0.100000,-0.100000)"
fill="#fff" stroke="none">
<path d="M1584 3480 c-238 -35 -358 -255 -231 -422 50 -65 106 -94 261 -133
77 -19 148 -42 158 -52 10 -9 18 -29 18 -44 0 -43 -37 -62 -130 -67 -66 -4
-86 -1 -124 18 -25 12 -57 35 -70 51 -14 16 -33 29 -43 29 -21 -1 -153 -96
-153 -110 0 -20 79 -88 131 -112 82 -39 154 -53 264 -52 166 0 279 50 340 148
27 45 30 57 30 136 0 79 -3 91 -30 136 -44 70 -98 99 -271 145 -82 22 -157 47
-167 56 -10 10 -17 27 -15 42 8 67 172 83 246 24 20 -16 42 -32 49 -36 14 -9
153 90 153 108 0 23 -77 82 -134 104 -55 20 -169 42 -211 40 -11 -1 -43 -5
-71 -9z"/>
<path d="M2460 3479 c-269 -44 -413 -357 -300 -652 59 -157 241 -260 427 -244
47 5 64 3 73 -8 11 -13 -10 -15 -157 -15 -118 0 -173 -4 -181 -12 -7 -7 -12
-39 -12 -75 0 -77 9 -83 114 -83 l76 0 2 -252 3 -253 99 -3 c64 -2 103 1 112
9 11 9 14 59 14 255 l0 244 68 0 c85 0 112 8 112 31 0 12 9 19 28 21 27 3 27
3 30 89 l3 87 -28 7 c-48 11 -93 37 -93 51 0 8 16 36 36 64 56 79 76 141 82
259 8 166 -25 266 -119 366 -56 60 -137 101 -226 115 -67 11 -87 11 -163 -1z
m181 -207 c40 -45 52 -100 53 -237 1 -190 -32 -262 -126 -272 -64 -7 -112 16
-140 69 -21 40 -23 55 -23 198 0 141 2 159 23 201 29 59 69 81 136 76 40 -4
55 -10 77 -35z m76 -756 c37 -30 78 -51 131 -65 23 -7 42 -16 42 -21 0 -5 -42
-11 -92 -12 l-93 -3 -3 -257 -2 -258 -90 0 -90 0 0 260 0 260 -90 0 -90 0 0
60 0 60 174 0 c169 0 175 -1 203 -24z"/>
<path d="M3087 3463 c-4 -3 -7 -196 -7 -428 0 -314 3 -424 12 -433 9 -9 94
-12 319 -12 169 0 314 3 323 6 13 5 16 23 16 95 l0 89 -200 0 -200 0 0 345 0
345 -128 0 c-71 0 -132 -3 -135 -7z"/>
<path d="M3180 2561 c-167 -54 -263 -222 -232 -406 20 -123 79 -206 181 -254
47 -22 70 -26 146 -26 76 0 99 4 146 26 30 14 72 43 91 63 127 130 126 376 -1
509 -60 64 -122 90 -221 93 -47 2 -96 0 -110 -5z m230 -42 c60 -27 114 -81
142 -143 19 -43 23 -68 23 -156 0 -88 -4 -113 -23 -156 -50 -110 -145 -167
-277 -167 -104 0 -169 27 -229 94 -105 117 -101 354 7 467 84 88 237 114 357
61z"/>
<path d="M3213 2415 c-37 -26 -55 -91 -55 -200 1 -151 31 -205 118 -205 84 0
116 58 115 216 0 103 -22 173 -59 193 -29 16 -94 14 -119 -4z m106 -15 c33
-17 46 -69 46 -180 0 -121 -13 -163 -55 -180 -43 -18 -94 2 -111 43 -15 35
-19 213 -6 260 16 57 76 84 126 57z"/>
<path d="M756 2544 c-3 -8 -6 -156 -6 -329 0 -253 3 -315 14 -324 9 -8 90 -11
272 -9 l259 3 3 74 c2 53 -1 77 -10 82 -7 5 -79 9 -160 9 l-148 0 0 45 0 45
94 0 c107 0 106 -1 106 85 0 76 -12 85 -116 85 l-84 0 0 40 0 40 144 0 c111 0
146 3 155 14 7 9 11 41 9 83 l-3 68 -261 3 c-232 2 -262 1 -268 -14z m514 -64
l0 -60 -142 0 c-79 0 -149 -4 -156 -9 -9 -5 -12 -26 -10 -67 l3 -59 93 -3 92
-3 0 -59 0 -60 -95 0 -96 0 3 -67 3 -68 158 -3 157 -3 0 -59 0 -60 -250 0
-250 0 0 320 0 320 245 0 245 0 0 -60z"/>
<path d="M1356 2544 c-3 -9 -6 -156 -6 -328 0 -229 3 -315 12 -324 8 -8 61
-12 174 -12 134 0 173 3 226 20 160 49 252 211 219 386 -15 82 -38 128 -88
175 -83 79 -156 99 -369 99 -138 0 -163 -2 -168 -16z m334 -14 c178 -29 270
-134 270 -311 0 -99 -25 -164 -85 -224 -75 -75 -116 -87 -322 -93 l-173 -5 0
322 0 321 123 0 c67 0 151 -5 187 -10z"/>
<path d="M1554 2407 c-2 -7 -3 -96 -2 -197 l3 -185 57 0 c93 1 151 59 163 163
12 101 -23 184 -89 216 -41 19 -125 22 -132 3z m136 -32 c42 -22 55 -59 55
-156 0 -73 -3 -92 -21 -116 -24 -32 -54 -49 -106 -58 l-38 -7 0 182 0 182 43
-7 c23 -4 53 -13 67 -20z"/>
<path d="M2045 2547 c-3 -7 -4 -158 -3 -337 l3 -325 100 -3 c85 -2 102 0 112
15 10 13 13 92 13 324 0 169 -3 314 -6 323 -5 13 -25 16 -110 16 -75 0 -106
-4 -109 -13z m195 -327 l0 -320 -90 0 -90 0 0 320 0 320 90 0 90 0 0 -320z"/>
<path d="M3656 2545 c-3 -9 -6 -157 -6 -329 0 -229 3 -315 12 -324 16 -16 190
-16 206 0 8 8 12 52 12 130 l0 118 28 0 c26 0 29 -6 73 -128 l46 -127 110 -3
c94 -2 112 0 117 14 3 9 -19 71 -53 147 l-59 132 28 16 c15 10 41 34 56 55 26
34 29 45 29 113 0 94 -20 127 -103 168 -56 28 -59 28 -273 31 -194 3 -217 2
-223 -13z m469 -29 c83 -36 123 -100 111 -180 -9 -55 -38 -102 -81 -127 -19
-12 -35 -26 -35 -33 0 -6 25 -66 55 -133 30 -67 55 -127 55 -133 0 -7 -31 -10
-92 -8 l-93 3 -45 124 c-48 131 -64 150 -117 136 -22 -5 -23 -10 -25 -133 l-3
-127 -87 -3 -88 -3 0 322 0 321 203 -4 c164 -3 209 -7 242 -22z"/>
<path d="M3864 2416 c-3 -7 -4 -42 -2 -77 l3 -64 71 0 c88 0 114 17 114 76 0
56 -34 79 -117 79 -44 0 -65 -4 -69 -14z m136 -19 c16 -8 26 -23 28 -40 5 -45
-13 -57 -84 -57 l-64 0 0 55 0 55 48 0 c26 0 58 -6 72 -13z"/>
</g>
</svg>
