<?xml version="1.0" standalone="no"?>

<!DOCTYPE svg PUBLIC "-//W3C//DTD SVG 20010904//EN"
 "http://www.w3.org/TR/2001/REC-SVG-20010904/DTD/svg10.dtd">
<svg version="1.0" xmlns="http://www.w3.org/2000/svg"
 width="500.000000pt" height="500.000000pt" viewBox="0 0 500.000000 500.000000"
 preserveAspectRatio="xMidYMid meet">

<g transform="translate(0.000000,500.000000) scale(0.100000,-0.100000)"
fill="#fff"  stroke="none">
<path d="M3905 3613 c-141 -17 -315 -76 -378 -129 -166 -139 48 -305 427 -332
332 -24 652 70 696 202 36 110 -148 222 -420 256 -79 9 -259 11 -325 3z"/>
<path d="M1003 3414 c-24 -9 -64 -34 -89 -57 -101 -93 -86 -244 32 -317 19
-13 85 -35 146 -51 126 -31 159 -53 141 -92 -20 -44 -142 -58 -208 -25 -11 6
-34 24 -52 40 l-31 30 -61 -42 c-34 -24 -61 -45 -61 -47 0 -16 40 -58 74 -78
65 -37 143 -56 236 -56 111 0 180 21 235 72 53 49 68 91 63 175 -3 52 -9 70
-34 100 -40 50 -77 68 -212 103 -121 32 -142 43 -142 72 0 30 43 50 104 50 56
0 86 -10 121 -42 20 -18 22 -18 78 22 31 22 57 45 57 50 0 18 -50 60 -98 82
-62 28 -235 34 -299 11z"/>
<path d="M1701 3409 c-68 -27 -134 -92 -169 -167 -24 -51 -27 -69 -27 -167 0
-100 3 -116 28 -170 34 -72 77 -119 137 -149 60 -31 91 -37 174 -37 53 0 75
-4 89 -17 18 -16 12 -17 -119 -22 l-139 -5 0 -50 0 -50 62 -3 63 -3 2 -177 3
-177 70 0 70 0 3 178 2 177 65 0 c59 0 65 2 65 21 0 15 4 19 16 15 9 -3 24 -6
34 -6 16 0 16 -3 -3 -42 -31 -63 -30 -169 3 -232 37 -72 95 -109 176 -114 83
-6 142 16 187 69 75 87 77 235 5 324 -73 87 -186 101 -310 37 -5 -2 -8 19 -8
46 0 50 0 50 -42 64 -62 21 -67 36 -29 91 104 152 88 380 -36 500 -64 63 -114
82 -223 84 -77 2 -105 -1 -149 -18z m183 -123 c45 -19 66 -68 73 -174 7 -107
-10 -196 -43 -228 -18 -19 -34 -24 -74 -24 -94 0 -125 63 -118 240 5 121 22
164 71 185 41 18 50 18 91 1z m542 -641 c57 -29 89 -71 104 -140 22 -99 -11
-202 -80 -247 -76 -49 -186 -46 -256 8 -96 72 -101 268 -10 353 58 54 163 66
242 26z m-409 -11 c74 -37 70 -54 -12 -54 l-65 0 0 -175 0 -175 -60 0 -60 0 0
159 c0 88 -3 166 -6 175 -5 12 -21 16 -65 16 l-59 0 0 40 0 40 137 0 c126 0
140 -2 190 -26z"/>
<path d="M2292 2584 c-41 -18 -59 -182 -27 -244 32 -62 109 -47 133 25 19 55
10 159 -15 194 -19 25 -62 37 -91 25z m73 -29 c23 -22 25 -32 25 -107 0 -101
-14 -128 -66 -128 -30 0 -37 4 -50 35 -29 71 -12 198 30 215 31 13 35 12 61
-15z"/>
<path d="M2267 3413 c-4 -3 -7 -156 -7 -338 0 -270 3 -335 14 -344 9 -8 87
-11 262 -9 l249 3 3 72 3 72 -158 3 -158 3 -3 273 -2 272 -98 0 c-54 0 -102
-3 -105 -7z"/>
<path d="M4616 3244 c-51 -44 -168 -92 -286 -117 -117 -24 -375 -29 -490 -8
-146 26 -289 82 -352 139 -17 14 -18 10 -18 -72 0 -104 12 -133 74 -175 106
-73 255 -110 472 -118 189 -7 322 11 447 59 156 60 200 115 195 246 l-3 80
-39 -34z"/>
<path d="M4637 3002 c-23 -26 -121 -78 -193 -102 -143 -50 -443 -70 -604 -41
-145 26 -289 82 -352 139 -17 14 -18 9 -18 -94 0 -106 1 -110 29 -145 116
-141 561 -207 863 -130 119 31 183 59 232 102 57 50 68 87 64 203 -3 86 -3 88
-21 68z"/>
<path d="M4616 2694 c-85 -74 -275 -128 -491 -140 -250 -14 -509 45 -624 141
l-31 27 0 -102 c0 -119 10 -146 74 -189 192 -132 633 -161 911 -60 44 16 101
45 126 63 66 49 80 85 77 200 l-3 94 -39 -34z"/>
<path d="M615 2668 c-3 -8 -4 -112 -3 -233 l3 -220 160 -3 c204 -4 205 -3 205
51 0 24 -5 48 -12 55 -8 8 -47 12 -110 12 l-98 0 0 30 0 30 65 0 65 0 0 55 0
55 -65 0 -65 0 0 30 0 30 93 0 c50 0 98 4 105 9 9 5 12 25 10 57 l-3 49 -173
3 c-134 2 -174 0 -177 -10z m345 -48 l0 -40 -105 0 c-102 0 -105 -1 -111 -24
-3 -14 -3 -34 1 -45 6 -18 14 -21 71 -21 l64 0 0 -40 0 -40 -58 0 c-62 0 -82
-11 -82 -46 0 -52 5 -54 116 -54 l104 0 0 -40 0 -40 -170 0 -170 0 0 215 0
215 170 0 170 0 0 -40z"/>
<path d="M1016 2664 c-11 -27 -7 -414 4 -435 9 -17 22 -19 105 -19 120 0 184
14 235 51 56 41 84 104 84 189 0 159 -101 230 -325 230 -79 0 -98 -3 -103 -16z
m276 -14 c159 -45 190 -286 49 -385 -41 -29 -46 -30 -177 -33 l-134 -4 0 216
0 216 113 0 c61 0 129 -5 149 -10z"/>
<path d="M1152 2448 l3 -133 27 -3 c37 -4 85 22 103 58 8 16 15 52 15 80 0 86
-39 130 -116 130 l-35 0 3 -132z m83 108 c41 -18 61 -71 51 -139 -8 -51 -36
-82 -83 -92 l-33 -7 0 126 c0 139 0 139 65 112z"/>
<path d="M1486 2664 c-12 -31 -7 -429 6 -442 7 -7 37 -12 68 -12 31 0 61 5 68
12 13 13 18 411 6 442 -5 12 -21 16 -74 16 -53 0 -69 -4 -74 -16z m134 -219
l0 -215 -60 0 -60 0 0 215 0 215 60 0 60 0 0 -215z"/>
<path d="M2595 2668 c-3 -7 -4 -112 -3 -233 l3 -220 70 0 70 0 3 88 c3 84 4
88 24 85 17 -2 28 -20 50 -83 16 -44 35 -83 41 -87 21 -14 137 -9 143 5 2 7
-13 53 -35 100 l-40 87 36 34 c31 28 37 40 41 87 5 61 -15 96 -71 126 -44 23
-324 33 -332 11z m330 -28 c64 -31 81 -88 48 -157 -9 -19 -27 -40 -40 -46 -30
-13 -28 -25 20 -129 l36 -78 -67 0 -68 0 -29 82 c-31 83 -50 106 -79 95 -13
-5 -16 -22 -16 -92 l0 -85 -65 0 -65 0 0 215 0 215 142 0 c122 0 148 -3 183
-20z"/>
<path d="M2734 2576 c-3 -8 -4 -31 -2 -52 3 -37 5 -39 41 -42 74 -6 117 56 65
92 -28 20 -97 21 -104 2z m107 -22 c22 -26 -1 -49 -55 -52 l-46 -3 0 35 c0 36
0 36 44 36 28 0 48 -6 57 -16z"/>
<path d="M4637 2422 c-23 -26 -121 -78 -193 -102 -143 -50 -443 -70 -604 -41
-145 26 -289 82 -352 139 -17 14 -18 9 -18 -96 l0 -112 37 -41 c115 -128 464
-191 765 -139 226 39 351 104 379 200 6 19 9 75 7 124 -3 86 -3 88 -21 68z"/>
</g>
</svg>
